<svg id="visual" viewBox="0 0 960 540" width="960" height="540" xmlns="http://www.w3.org/2000/svg" xmlns:xlink="http://www.w3.org/1999/xlink" version="1.1"><g stroke-width="1" stroke-linejoin="bevel"><path d="M543.6 264L571.6 372L677.7 303Z" fill="#2a1e17" stroke="#2a1e17"></path><path d="M571.6 372L693.7 414L677.7 303Z" fill="#31231b" stroke="#31231b"></path><path d="M677.7 303L577.6 156L543.6 264Z" fill="#231913" stroke="#231913"></path><path d="M415.4 262L426.4 368L543.6 264Z" fill="#201711" stroke="#201711"></path><path d="M543.6 264L426.4 368L571.6 372Z" fill="#1d150e" stroke="#1d150e"></path><path d="M571.6 372L572.6 540L693.7 414Z" fill="#201711" stroke="#201711"></path><path d="M577.6 156L415.4 262L543.6 264Z" fill="#31231b" stroke="#31231b"></path><path d="M847.9 249L670.7 101L677.7 303Z" fill="#271c15" stroke="#271c15"></path><path d="M677.7 303L670.7 101L577.6 156Z" fill="#1a120b" stroke="#1a120b"></path><path d="M430.4 540L572.6 540L571.6 372Z" fill="#35251d" stroke="#35251d"></path><path d="M572.6 540L667.7 540L693.7 414Z" fill="#1a120b" stroke="#1a120b"></path><path d="M845.9 388L677.7 303L693.7 414Z" fill="#31231b" stroke="#31231b"></path><path d="M845.9 388L847.9 249L677.7 303Z" fill="#3c2a21" stroke="#3c2a21"></path><path d="M827.9 540L845.9 388L693.7 414Z" fill="#38281f" stroke="#38281f"></path><path d="M577.6 156L403.4 118L415.4 262Z" fill="#231913" stroke="#231913"></path><path d="M521.6 0L403.4 118L577.6 156Z" fill="#1d150e" stroke="#1d150e"></path><path d="M426.4 368L430.4 540L571.6 372Z" fill="#3c2a21" stroke="#3c2a21"></path><path d="M252.3 384L430.4 540L426.4 368Z" fill="#31231b" stroke="#31231b"></path><path d="M262.3 258L426.4 368L415.4 262Z" fill="#1d150e" stroke="#1d150e"></path><path d="M847.9 249L828.9 101L670.7 101Z" fill="#38281f" stroke="#38281f"></path><path d="M692.7 0L521.6 0L670.7 101Z" fill="#3c2a21" stroke="#3c2a21"></path><path d="M670.7 101L521.6 0L577.6 156Z" fill="#3c2a21" stroke="#3c2a21"></path><path d="M794.9 0L692.7 0L670.7 101Z" fill="#31231b" stroke="#31231b"></path><path d="M667.7 540L827.9 540L693.7 414Z" fill="#2d2019" stroke="#2d2019"></path><path d="M286.3 171L415.4 262L403.4 118Z" fill="#3c2a21" stroke="#3c2a21"></path><path d="M286.3 171L262.3 258L415.4 262Z" fill="#1a120b" stroke="#1a120b"></path><path d="M308.3 0L286.3 171L403.4 118Z" fill="#271c15" stroke="#271c15"></path><path d="M521.6 0L433.4 0L403.4 118Z" fill="#1d150e" stroke="#1d150e"></path><path d="M845.9 388L960 287L847.9 249Z" fill="#2a1e17" stroke="#2a1e17"></path><path d="M847.9 249L960 106L828.9 101Z" fill="#1d150e" stroke="#1d150e"></path><path d="M960 387L960 287L845.9 388Z" fill="#38281f" stroke="#38281f"></path><path d="M262.3 258L252.3 384L426.4 368Z" fill="#1d150e" stroke="#1d150e"></path><path d="M960 0L794.9 0L828.9 101Z" fill="#35251d" stroke="#35251d"></path><path d="M828.9 101L794.9 0L670.7 101Z" fill="#1a120b" stroke="#1a120b"></path><path d="M960 540L960 387L845.9 388Z" fill="#231913" stroke="#231913"></path><path d="M960 287L960 106L847.9 249Z" fill="#1a120b" stroke="#1a120b"></path><path d="M286.3 171L157.1 276L262.3 258Z" fill="#3c2a21" stroke="#3c2a21"></path><path d="M433.4 0L308.3 0L403.4 118Z" fill="#35251d" stroke="#35251d"></path><path d="M827.9 540L960 540L845.9 388Z" fill="#3c2a21" stroke="#3c2a21"></path><path d="M252.3 384L246.3 540L430.4 540Z" fill="#1a120b" stroke="#1a120b"></path><path d="M105.1 124L157.1 276L286.3 171Z" fill="#2d2019" stroke="#2d2019"></path><path d="M262.3 258L157.1 276L252.3 384Z" fill="#231913" stroke="#231913"></path><path d="M252.3 384L123.1 398L246.3 540Z" fill="#1d150e" stroke="#1d150e"></path><path d="M960 106L960 0L828.9 101Z" fill="#31231b" stroke="#31231b"></path><path d="M157.1 276L123.1 398L252.3 384Z" fill="#201711" stroke="#201711"></path><path d="M123.1 398L139.1 540L246.3 540Z" fill="#2a1e17" stroke="#2a1e17"></path><path d="M121.1 0L105.1 124L286.3 171Z" fill="#1d150e" stroke="#1d150e"></path><path d="M157.1 276L0 268L123.1 398Z" fill="#1a120b" stroke="#1a120b"></path><path d="M308.3 0L121.1 0L286.3 171Z" fill="#1a120b" stroke="#1a120b"></path><path d="M0 99L0 268L105.1 124Z" fill="#31231b" stroke="#31231b"></path><path d="M105.1 124L0 268L157.1 276Z" fill="#3c2a21" stroke="#3c2a21"></path><path d="M123.1 398L0 540L139.1 540Z" fill="#3c2a21" stroke="#3c2a21"></path><path d="M0 268L0 373L123.1 398Z" fill="#1a120b" stroke="#1a120b"></path><path d="M121.1 0L0 99L105.1 124Z" fill="#31231b" stroke="#31231b"></path><path d="M0 373L0 540L123.1 398Z" fill="#38281f" stroke="#38281f"></path><path d="M121.1 0L0 0L0 99Z" fill="#201711" stroke="#201711"></path></g></svg>